# xmcd
#
# Track frame offsets: 
#        150
#        21773
#        35414
#        54999
#        72195
#        89021
#        108360
#        127375
#        142175
#        152842
#        168914
#        182632
#        207346
#        232721
#        244634
#
# Disc length: 3459 seconds
#
# Revision: 0
# Processed by: cddbd v1.5.2PL0 Copyright (c) Steve Scherf et al.
# Submitted via: ExactAudioCopy v0.99pb5
#
DISCID=ce0d810f
DTITLE=Sochi - Taking It Back To The Old School
DYEAR=2002
DGENRE=Soul
TTITLE0=When I Hold Your Hand
TTITLE1=You Send Me
TTITLE2=Just Because
TTITLE3=Dream to Remember
TTITLE4=Harry Hippie
TTITLE5=That's The Way I Feel About You
TTITLE6=Stop Doggin' Me Around
TTITLE7=Another Saturday Night
TTITLE8=Let The Good Times Roll
TTITLE9=Teenage Sonata
TTITLE10=That's Where It's At
TTITLE11=Why Did You Lie
TTITLE12=Please Baby
TTITLE13=Nothing Can Change This Love
TTITLE14=What's Your Name
EXTD=
EXTT0=
EXTT1=
EXTT2=
EXTT3=
EXTT4=
EXTT5=
EXTT6=
EXTT7=
EXTT8=
EXTT9=
EXTT10=
EXTT11=
EXTT12=
EXTT13=
EXTT14=
PLAYORDER=
